<svg width="20" height="20" fill="transparent" xmlns="http://www.w3.org/2000/svg" ml="4" mr="4" stroke="#ffffff" btnType="solid" icon="[object Object]" class="sc-pyfCe gFDybm ProductCard__SolidButtonBigStyled-sc-camkhj-1 dEqZtN" iconSize="20"><path fill-rule="evenodd" clip-rule="evenodd" d="M3.927 3.28A.956.956 0 0 0 2.576 4.63l5.437 5.438-5.3 5.3a.956.956 0 1 0 1.352 1.351l5.43-5.43a1.727 1.727 0 0 0-.032-2.474L3.927 3.28Z" fill="#fff"></path><path fill-rule="evenodd" clip-rule="evenodd" d="M11.631 3.28A.956.956 0 1 0 10.28 4.63l5.437 5.438-5.3 5.3a.956.956 0 1 0 1.352 1.351l5.43-5.43a1.727 1.727 0 0 0-.032-2.474L11.631 3.28Z" fill="#fff"></path></svg>